<!DOCTYPE svg PUBLIC "-//W3C//DTD SVG 1.1//EN" "http://www.w3.org/Graphics/SVG/1.1/DTD/svg11.dtd">
<!-- Uploaded to: SVG Repo, www.svgrepo.com, Transformed by: SVG Repo Mixer Tools -->
<svg fill="#10b981" width="800px" height="800px" viewBox="-32 0 512 512" xmlns="http://www.w3.org/2000/svg">
<g id="SVGRepo_bgCarrier" stroke-width="0"/>
<g id="SVGRepo_tracerCarrier" stroke-linecap="round" stroke-linejoin="round"/>
<g id="SVGRepo_iconCarrier">
<path d="M448 48v32a16 16 0 0 1-16 16h-48v368a16 16 0 0 1-16 16h-32a16 16 0 0 1-16-16V96h-32v368a16 16 0 0 1-16 16h-32a16 16 0 0 1-16-16V352h-32a160 160 0 0 1 0-320h240a16 16 0 0 1 16 16z"/>
</g>
</svg>